<?xml version="1.0" encoding="UTF-8" standalone="no"?>
<svg
   xmlns:dc="http://purl.org/dc/elements/1.1/"
   xmlns:cc="http://creativecommons.org/ns#"
   xmlns:rdf="http://www.w3.org/1999/02/22-rdf-syntax-ns#"
   xmlns:svg="http://www.w3.org/2000/svg"
   xmlns="http://www.w3.org/2000/svg"
   id="svg8"
   version="1.1"
   viewBox="0 0 187.854 187.854"
   height="187.854mm"
   width="187.854mm">
  <defs
     id="defs2" />
  <metadata
     id="metadata5">
    <rdf:RDF>
      <cc:Work
         rdf:about="">
        <dc:format>image/svg+xml</dc:format>
        <dc:type
           rdf:resource="http://purl.org/dc/dcmitype/StillImage" />
        <dc:title></dc:title>
      </cc:Work>
    </rdf:RDF>
  </metadata>
  <g
     transform="translate(0,-109.146)"
     id="layer1">
    <path
       d="m 18.961721,132.04325 c 0,4.8708 -3.948642,8.81945 -8.819445,8.81945 -4.8708037,0 -8.8194457,-3.94865 -8.8194457,-8.81945 0,-4.8708 3.948642,-8.81944 8.8194457,-8.81944 4.870803,0 8.819445,3.94864 8.819445,8.81944"
       style="fill:none;stroke:#000000;stroke-width:2.64583349;stroke-linecap:butt;stroke-linejoin:miter;stroke-miterlimit:10;stroke-dasharray:none;stroke-opacity:1"
       id="path846" />
    <path
       d="m 102.74644,277.21131 c 0,4.8708 -3.948636,8.81945 -8.819436,8.81945 -4.8708,0 -8.819445,-3.94865 -8.819445,-8.81945 0,-4.8708 3.948645,-8.81944 8.819445,-8.81944 4.8708,0 8.819436,3.94864 8.819436,8.81944"
       style="fill:none;stroke:#000000;stroke-width:2.64583349;stroke-linecap:butt;stroke-linejoin:miter;stroke-miterlimit:10;stroke-dasharray:none;stroke-opacity:1"
       id="path848" />
    <path
       d="m 186.53117,132.04325 c 0,4.8708 -3.94864,8.81945 -8.81944,8.81945 -4.87081,0 -8.81945,-3.94865 -8.81945,-8.81945 0,-4.8708 3.94864,-8.81944 8.81945,-8.81944 4.8708,0 8.81944,3.94864 8.81944,8.81944"
       style="fill:none;stroke:#000000;stroke-width:2.64583349;stroke-linecap:butt;stroke-linejoin:miter;stroke-miterlimit:10;stroke-dasharray:none;stroke-opacity:1"
       id="path850" />
    <path
       d="m 133.6145,179.66825 c 0,21.91879 -17.76871,39.6875 -39.687496,39.6875 -21.918791,0 -39.687503,-17.76871 -39.687503,-39.6875 0,-21.91879 17.768712,-39.6875 39.687503,-39.6875 21.918786,0 39.687496,17.76871 39.687496,39.6875"
       style="fill:none;stroke:#000000;stroke-width:2.64583349;stroke-linecap:butt;stroke-linejoin:miter;stroke-miterlimit:10;stroke-dasharray:none;stroke-opacity:1"
       id="path852" />
    <g
       id="text858"
       style="font-variant:normal;font-weight:normal;font-size:108.01572418px;font-family:Symbol;-inkscape-font-specification:Symbol;writing-mode:lr-tb;fill:#000000;fill-opacity:1;fill-rule:nonzero;stroke:none;stroke-width:0.2882612"
       transform="matrix(-0.04273208,0.8153774,1.2230667,0.06409822,-13.418247,43.295879)"
       aria-label="∫">
      <path
         id="path916"
         style="stroke-width:0.2882612"
         d="m 100.61338,73.654967 c 0,-8.31721 -0.10802,-12.421808 -0.43207,-18.362673 -0.216027,-3.02444 -0.324042,-5.832849 -0.324042,-7.453085 0,-4.320629 1.188172,-6.80499 3.132452,-6.80499 0.6481,0 1.18818,0.216031 1.40421,0.648094 1.83627,2.916425 2.59238,3.564519 4.42864,3.564519 2.16032,0 3.78055,-1.51222 3.78055,-3.456503 0,-2.916425 -2.59237,-4.860708 -6.48094,-4.860708 -4.86071,0 -8.533242,3.132456 -10.045463,8.425227 -1.620235,5.832849 -2.700393,16.850453 -2.700393,28.192104 v 37.265428 c 0,7.77713 0.108016,11.66569 0.432063,18.25465 0.216032,3.13246 0.324047,6.37293 0.324047,8.10118 0,3.78055 -1.296188,6.26492 -3.348487,6.26492 -0.864126,0 -1.620236,-0.54008 -2.26833,-1.94429 -0.972142,-1.83627 -1.836268,-2.37634 -3.348488,-2.37634 -2.160314,0 -3.78055,1.51222 -3.78055,3.56452 0,2.8084 2.592377,4.75269 6.480943,4.75269 4.860708,0 8.533243,-3.13246 10.045463,-8.42523 1.620236,-5.83285 2.700395,-16.74244 2.700395,-28.1921 z" />
    </g>
    <g
       id="text862"
       style="font-variant:normal;font-weight:normal;font-size:108.0157547px;font-family:Symbol;-inkscape-font-specification:Symbol;writing-mode:lr-tb;fill:#000000;fill-opacity:1;fill-rule:nonzero;stroke:none;stroke-width:0.31518036"
       transform="matrix(-0.68477167,-0.44469608,-0.66704351,1.0271575,-13.418247,43.295879)"
       aria-label="∫">
      <path
         id="path913"
         style="stroke-width:0.31518036"
         d="m -261.97153,26.46214 c 0,-8.317213 -0.10802,-12.421812 -0.43206,-18.3626785 -0.21604,-3.0244412 -0.32405,-5.8328508 -0.32405,-7.4530871 0,-4.3206302 1.18817,-6.8049925 3.13245,-6.8049925 0.6481,0 1.18818,0.2160315 1.40421,0.6480945 1.83627,2.9164254 2.59238,3.5645199 4.42865,3.5645199 2.16031,0 3.78055,-1.5122206 3.78055,-3.4565042 0,-2.9164253 -2.59238,-4.8607091 -6.48095,-4.8607091 -4.86071,0 -8.53324,3.1324571 -10.04546,8.425229 -1.62024,5.8328508 -2.7004,16.850458 -2.7004,28.192112 v 37.265435 c 0,7.777135 0.10802,11.665702 0.43207,18.254663 0.21603,3.132457 0.32404,6.372929 0.32404,8.101182 0,3.780551 -1.29619,6.264913 -3.34849,6.264913 -0.86412,0 -1.62023,-0.540078 -2.26833,-1.944283 -0.97214,-1.836268 -1.83626,-2.376347 -3.34848,-2.376347 -2.16032,0 -3.78056,1.512221 -3.78056,3.56452 0,2.80841 2.59238,4.752693 6.48095,4.752693 4.86071,0 8.53324,-3.132457 10.04546,-8.425229 1.62024,-5.83285 2.7004,-16.742442 2.7004,-28.192112 z" />
    </g>
    <g
       id="text866"
       style="font-variant:normal;font-weight:normal;font-size:108.01564789px;font-family:Symbol;-inkscape-font-specification:Symbol;writing-mode:lr-tb;fill:#000000;fill-opacity:1;fill-rule:nonzero;stroke:none;stroke-width:0.30609936"
       transform="matrix(0.72750368,-0.37068147,-0.55602341,-1.0912555,-13.418247,43.295879)"
       aria-label="∫">
      <path
         id="path910"
         style="stroke-width:0.30609936"
         d="m -19.314489,-159.27804 c 0,-8.31721 -0.108015,-12.4218 -0.432062,-18.36266 -0.216031,-3.02444 -0.324047,-5.83285 -0.324047,-7.45308 0,-4.32063 1.188172,-6.80499 3.132454,-6.80499 0.648094,0 1.188172,0.21603 1.404203,0.6481 1.836266,2.91642 2.592376,3.56451 4.428642,3.56451 2.1603127,0 3.7805474,-1.51222 3.7805474,-3.4565 0,-2.91642 -2.5923756,-4.8607 -6.4809384,-4.8607 -4.860705,0 -8.533237,3.13245 -10.045456,8.42522 -1.620234,5.83284 -2.700391,16.85044 -2.700391,28.19208 v 37.2654 c 0,7.77713 0.108016,11.66569 0.432063,18.25465 0.216031,3.13245 0.324047,6.37292 0.324047,8.10117 0,3.780548 -1.296188,6.264908 -3.348485,6.264908 -0.864126,0 -1.620235,-0.540078 -2.268329,-1.944282 -0.972141,-1.836266 -1.836266,-2.376344 -3.348485,-2.376344 -2.160313,0 -3.780548,1.512219 -3.780548,3.564516 0,2.808407 2.592376,4.752689 6.480939,4.752689 4.860704,0 8.533236,-3.132454 10.045455,-8.425221 1.620235,-5.832845 2.700391,-16.742426 2.700391,-28.192086 z" />
    </g>
  </g>
</svg>
