<!DOCTYPE svg PUBLIC "-//W3C//DTD SVG 1.1//EN" "http://www.w3.org/Graphics/SVG/1.1/DTD/svg11.dtd">
<svg
	xmlns="http://www.w3.org/2000/svg"
	version="1.1"
	viewBox="0 0 296 296"
	width="296"
	height="296"
	style="color-scheme: light dark"
>
	<title>https://github.com/f-klubben/stregsystemet</title>
	<path
		fill="currentcolor"
		d="M32 32h8v8h-8zm0 8h8v8h-8zm0 8h8v8h-8zm0 8h8v8h-8zm0 8h8v8h-8zm0 8h8v8h-8zm0 8h8v8h-8zm0 16h8v8h-8zm0 8h8v8h-8zm0 8h8v8h-8zm0 16h8v8h-8zm0 24h8v8h-8zm0 8h8v8h-8zm0 48h8v8h-8zm0 8h8v8h-8zm0 8h8v8h-8zm0 8h8v8h-8zm0 8h8v8h-8zm0 8h8v8h-8zm0 8h8v8h-8zm8-224h8v8h-8zm0 48h8v8h-8zm0 32h8v8h-8zm0 8h8v8h-8zm0 8h8v8h-8zm0 24h8v8h-8zm0 8h8v8h-8zm0 48h8v8h-8zm0 48h8v8h-8zm8-224h8v8h-8zm0 16h8v8h-8zm0 8h8v8h-8zm0 8h8v8h-8zm0 16h8v8h-8zm0 24h8v8h-8zm0 8h8v8h-8zm0 16h8v8h-8zm0 8h8v8h-8zm0 16h8v8h-8zm0 8h8v8h-8zm0 32h8v8h-8zm0 16h8v8h-8zm0 16h8v8h-8zm0 8h8v8h-8zm0 8h8v8h-8zm0 16h8v8h-8zm8-224h8v8h-8zm0 16h8v8h-8zm0 8h8v8h-8zm0 8h8v8h-8zm0 16h8v8h-8zm0 16h8v8h-8zm0 16h8v8h-8zm0 8h8v8h-8zm0 8h8v8h-8zm0 8h8v8h-8zm0 16h8v8h-8zm0 8h8v8h-8zm0 8h8v8h-8zm0 24h8v8h-8zm0 16h8v8h-8zm0 16h8v8h-8zm0 8h8v8h-8zm0 8h8v8h-8zm0 16h8v8h-8zm8-224h8v8h-8zm0 16h8v8h-8zm0 8h8v8h-8zm0 8h8v8h-8zm0 16h8v8h-8zm0 16h8v8h-8zm0 8h8v8h-8zm0 8h8v8h-8zm0 8h8v8h-8zm0 8h8v8h-8zm0 16h8v8h-8zm0 8h8v8h-8zm0 24h8v8h-8zm0 16h8v8h-8zm0 16h8v8h-8zm0 16h8v8h-8zm0 8h8v8h-8zm0 8h8v8h-8zm0 16h8v8h-8zm8-224h8v8h-8zm0 48h8v8h-8zm0 16h8v8h-8zm0 8h8v8h-8zm0 8h8v8h-8zm0 32h8v8h-8zm0 16h8v8h-8zm0 8h8v8h-8zm0 8h8v8h-8zm0 32h8v8h-8zm0 48h8v8h-8zm8-224h8v8h-8zm0 8h8v8h-8zm0 8h8v8h-8zm0 8h8v8h-8zm0 8h8v8h-8zm0 8h8v8h-8zm0 8h8v8h-8zm0 16h8v8h-8zm0 16h8v8h-8zm0 16h8v8h-8zm0 16h8v8h-8zm0 16h8v8h-8zm0 16h8v8h-8zm0 16h8v8h-8zm0 16h8v8h-8zm0 8h8v8h-8zm0 8h8v8h-8zm0 8h8v8h-8zm0 8h8v8h-8zm0 8h8v8h-8zm0 8h8v8h-8zm8-160h8v8h-8zm0 8h8v8h-8zm0 24h8v8h-8zm0 8h8v8h-8zm0 48h8v8h-8zm8-152h8v8h-8zm0 8h8v8h-8zm0 8h8v8h-8zm0 16h8v8h-8zm0 16h8v8h-8zm0 16h8v8h-8zm0 8h8v8h-8zm0 24h8v8h-8zm0 24h8v8h-8zm0 8h8v8h-8zm0 8h8v8h-8zm0 8h8v8h-8zm0 8h8v8h-8zm0 8h8v8h-8zm0 8h8v8h-8zm0 8h8v8h-8zm0 8h8v8h-8zm0 8h8v8h-8zm0 8h8v8h-8zm0 24h8v8h-8zm8-216h8v8h-8zm0 8h8v8h-8zm0 8h8v8h-8zm0 32h8v8h-8zm0 8h8v8h-8zm0 16h8v8h-8zm0 32h8v8h-8zm0 16h8v8h-8zm0 8h8v8h-8zm0 8h8v8h-8zm0 8h8v8h-8zm0 40h8v8h-8zm0 8h8v8h-8zm0 8h8v8h-8zm0 8h8v8h-8zm8-208h8v8h-8zm0 8h8v8h-8zm0 24h8v8h-8zm0 8h8v8h-8zm0 8h8v8h-8zm0 24h8v8h-8zm0 24h8v8h-8zm0 16h8v8h-8zm0 8h8v8h-8zm0 32h8v8h-8zm0 8h8v8h-8zm0 40h8v8h-8zm0 8h8v8h-8zm8-216h8v8h-8zm0 8h8v8h-8zm0 16h8v8h-8zm0 8h8v8h-8zm0 32h8v8h-8zm0 8h8v8h-8zm0 24h8v8h-8zm0 8h8v8h-8zm0 8h8v8h-8zm0 16h8v8h-8zm0 40h8v8h-8zm0 8h8v8h-8zm0 8h8v8h-8zm0 8h8v8h-8zm0 16h8v8h-8zm8-168h8v8h-8zm0 8h8v8h-8zm0 8h8v8h-8zm0 24h8v8h-8zm0 16h8v8h-8zm0 16h8v8h-8zm0 8h8v8h-8zm0 8h8v8h-8zm0 32h8v8h-8zm0 8h8v8h-8zm0 8h8v8h-8zm0 8h8v8h-8zm0 8h8v8h-8zm0 8h8v8h-8zm8-200h8v8h-8zm0 16h8v8h-8zm0 8h8v8h-8zm0 32h8v8h-8zm0 56h8v8h-8zm0 16h8v8h-8zm0 16h8v8h-8zm0 8h8v8h-8zm0 40h8v8h-8zm0 16h8v8h-8zm0 8h8v8h-8zm8-208h8v8h-8zm0 8h8v8h-8zm0 24h8v8h-8zm0 8h8v8h-8zm0 8h8v8h-8zm0 8h8v8h-8zm0 8h8v8h-8zm0 16h8v8h-8zm0 16h8v8h-8zm0 8h8v8h-8zm0 48h8v8h-8zm0 32h8v8h-8zm0 8h8v8h-8zm0 16h8v8h-8zm8-200h8v8h-8zm0 8h8v8h-8zm0 32h8v8h-8zm0 8h8v8h-8zm0 8h8v8h-8zm0 8h8v8h-8zm0 8h8v8h-8zm0 8h8v8h-8zm0 8h8v8h-8zm0 8h8v8h-8zm0 16h8v8h-8zm0 8h8v8h-8zm0 8h8v8h-8zm0 8h8v8h-8zm0 8h8v8h-8zm0 8h8v8h-8zm0 8h8v8h-8zm0 16h8v8h-8zm0 8h8v8h-8zm0 8h8v8h-8zm0 8h8v8h-8zm0 8h8v8h-8zm8-216h8v8h-8zm0 8h8v8h-8zm0 16h8v8h-8zm0 16h8v8h-8zm0 32h8v8h-8zm0 16h8v8h-8zm0 8h8v8h-8zm0 40h8v8h-8zm0 56h8v8h-8zm0 16h8v8h-8zm0 8h8v8h-8zm8-200h8v8h-8zm0 8h8v8h-8zm0 8h8v8h-8zm0 24h8v8h-8zm0 24h8v8h-8zm0 24h8v8h-8zm0 24h8v8h-8zm0 8h8v8h-8zm0 16h8v8h-8zm0 8h8v8h-8zm0 16h8v8h-8zm0 16h8v8h-8zm0 8h8v8h-8zm8-208h8v8h-8zm0 16h8v8h-8zm0 32h8v8h-8zm0 24h8v8h-8zm0 8h8v8h-8zm0 8h8v8h-8zm0 16h8v8h-8zm0 8h8v8h-8zm0 8h8v8h-8zm0 16h8v8h-8zm0 32h8v8h-8zm0 16h8v8h-8zm0 8h8v8h-8zm0 8h8v8h-8zm8-192h8v8h-8zm0 16h8v8h-8zm0 8h8v8h-8zm0 24h8v8h-8zm0 16h8v8h-8zm0 16h8v8h-8zm0 8h8v8h-8zm0 16h8v8h-8zm0 8h8v8h-8zm0 8h8v8h-8zm0 8h8v8h-8zm0 8h8v8h-8zm0 8h8v8h-8zm0 24h8v8h-8zm0 8h8v8h-8zm0 8h8v8h-8zm0 32h8v8h-8zm8-200h8v8h-8zm0 16h8v8h-8zm0 8h8v8h-8zm0 24h8v8h-8zm0 8h8v8h-8zm0 8h8v8h-8zm0 8h8v8h-8zm0 16h8v8h-8zm0 16h8v8h-8zm0 32h8v8h-8zm0 8h8v8h-8zm0 8h8v8h-8zm0 8h8v8h-8zm0 8h8v8h-8zm0 16h8v8h-8zm0 16h8v8h-8zm8-160h8v8h-8zm0 8h8v8h-8zm0 16h8v8h-8zm0 24h8v8h-8zm0 16h8v8h-8zm0 32h8v8h-8zm0 32h8v8h-8zm0 8h8v8h-8zm0 8h8v8h-8zm8-208h8v8h-8zm0 8h8v8h-8zm0 8h8v8h-8zm0 8h8v8h-8zm0 8h8v8h-8zm0 8h8v8h-8zm0 8h8v8h-8zm0 40h8v8h-8zm0 8h8v8h-8zm0 8h8v8h-8zm0 8h8v8h-8zm0 40h8v8h-8zm0 8h8v8h-8zm0 16h8v8h-8zm0 16h8v8h-8zm0 24h8v8h-8zm0 8h8v8h-8zm8-224h8v8h-8zm0 48h8v8h-8zm0 24h8v8h-8zm0 8h8v8h-8zm0 8h8v8h-8zm0 8h8v8h-8zm0 8h8v8h-8zm0 16h8v8h-8zm0 40h8v8h-8zm0 32h8v8h-8zm0 16h8v8h-8zm0 8h8v8h-8zm8-216h8v8h-8zm0 16h8v8h-8zm0 8h8v8h-8zm0 8h8v8h-8zm0 16h8v8h-8zm0 16h8v8h-8zm0 8h8v8h-8zm0 8h8v8h-8zm0 24h8v8h-8zm0 8h8v8h-8zm0 8h8v8h-8zm0 16h8v8h-8zm0 8h8v8h-8zm0 16h8v8h-8zm0 8h8v8h-8zm0 8h8v8h-8zm0 8h8v8h-8zm0 8h8v8h-8zm0 16h8v8h-8zm0 16h8v8h-8zm8-224h8v8h-8zm0 16h8v8h-8zm0 8h8v8h-8zm0 8h8v8h-8zm0 16h8v8h-8zm0 40h8v8h-8zm0 16h8v8h-8zm0 24h8v8h-8zm0 16h8v8h-8zm0 8h8v8h-8zm0 8h8v8h-8zm0 8h8v8h-8zm0 8h8v8h-8zm0 16h8v8h-8zm0 24h8v8h-8zm8-216h8v8h-8zm0 16h8v8h-8zm0 8h8v8h-8zm0 8h8v8h-8zm0 16h8v8h-8zm0 16h8v8h-8zm0 8h8v8h-8zm0 8h8v8h-8zm0 24h8v8h-8zm0 8h8v8h-8zm0 8h8v8h-8zm0 16h8v8h-8zm0 16h8v8h-8zm0 8h8v8h-8zm0 48h8v8h-8zm0 8h8v8h-8zm8-216h8v8h-8zm0 48h8v8h-8zm0 16h8v8h-8zm0 8h8v8h-8zm0 32h8v8h-8zm0 32h8v8h-8zm0 24h8v8h-8zm0 32h8v8h-8zm0 16h8v8h-8zm8-208h8v8h-8zm0 8h8v8h-8zm0 8h8v8h-8zm0 8h8v8h-8zm0 8h8v8h-8zm0 8h8v8h-8zm0 8h8v8h-8zm0 16h8v8h-8zm0 24h8v8h-8zm0 8h8v8h-8zm0 8h8v8h-8zm0 8h8v8h-8zm0 8h8v8h-8zm0 24h8v8h-8zm0 56h8v8h-8zm0 8h8v8h-8zm0 8h8v8h-8z"
	/>
</svg>
