<!DOCTYPE svg PUBLIC "-//W3C//DTD SVG 1.1//EN" "http://www.w3.org/Graphics/SVG/1.1/DTD/svg11.dtd">
<svg
	xmlns="http://www.w3.org/2000/svg"
	xmlns:xlink="http://www.w3.org/1999/xlink"
	version="1.1"
	viewBox="0 0 100 100"
	width="100"
	height="100"
>
	<title>F-Klub logo</title>
	<style>
		svg {
			color-scheme: light dark;
		}
	</style>
	<defs>
		<circle id="edge-circle" r="4.7" />
		<path
			id="integral"
			aria-label="∫"
			d="M0 0c0-5.42282092.04666464-8.09901882.18665424-11.9724628.09332366-1.97193488.13998614-3.80301754.13998614-4.85941142 0-2.8170501-.5132903-4.43685348-1.35321926-4.43685348-.2799792 0-.51329376.14085222-.60661872.4225573-.79326864 1.9015091-1.11990816 2.32406638-1.91317248 2.32406638-.93325824 0-1.6331976-.98596744-1.6331976-2.25363996 0-1.9015091 1.11990384-3.16918161 2.79976608-3.16918161 2.09982672 0 3.68636054 2.04236131 4.33964002 5.493248.69994152 3.80301755 1.16656977 10.98649536 1.16656977 18.38125181v24.29705906c0 5.07068876-.04666291 7.60602988-.18665121 11.9020318-.09332583 2.04236392-.1399883 4.15515036-.1399883 5.28196936 0 2.4649186.5599532 4.08472784 1.44654638 4.08472784.37330243 0 .69994195-.35213216.97991856-1.26767708.41996534-1.19724804.79326777-1.54937368 1.44654681-1.54937368.93325565 0 1.6331976.98596744 1.6331976 2.32406704 0 1.8310768-1.11990686 3.09875388-2.79976737 3.09875388-2.09982586 0-3.68636098-2.04236392-4.33964002-5.49324996C.46662869 38.80486428 0 31.6918116 0 24.22663328z"
		/>
	</defs>
	<g id="circles" fill="none" stroke="currentcolor" stroke-width="1.4">
		<circle id="center-circle" r="21.13" cx="50" cy="37.55" />
		<use id="top-left-circle" xlink:href="#edge-circle" x="5.4" y="12.2" />
		<use id="top-right-circle" xlink:href="#edge-circle" x="94.6" y="12.2" />
		<use id="bottom-circle" xlink:href="#edge-circle" x="50" y="89.48" />
	</g>
	<g id="integrals" fill="currentcolor" stroke="none">
		<use
			id="top-integral"
			xlink:href="#integral"
			x="38.54"
			y="11.12"
			transform="rotate(272.95 38.54 11.12)" 
		/>
		<use
			id="left-integral"
			xlink:href="#integral"
			x="32.52"
			y="61.26"
			transform="rotate(152.97 32.52 61.26)"
		/>
		<use
			id="right-integral"
			xlink:href="#integral"
			x="78.96"
			y="41.44"
			transform="rotate(32.95 78.96 41.44)"
		/>
	</g>
</svg>
